<?xml version="1.0" encoding="UTF-8" standalone="no"?>
<!-- Created with Inkscape (http://www.inkscape.org/) -->

<svg
   xmlns:dc="http://purl.org/dc/elements/1.1/"
   xmlns:cc="http://creativecommons.org/ns#"
   xmlns:rdf="http://www.w3.org/1999/02/22-rdf-syntax-ns#"
   xmlns:svg="http://www.w3.org/2000/svg"
   xmlns="http://www.w3.org/2000/svg"
   version="1.1"
   width="604.01337"
   height="802.75879"
   id="svg2">
  <defs
     id="defs4">
    <marker
       refX="0"
       refY="0"
       orient="auto"
       id="Arrow1Lend"
       style="overflow:visible">
      <path
         d="M 0,0 5,-5 -12.5,0 5,5 0,0 z"
         transform="matrix(-0.8,0,0,-0.8,-10,0)"
         id="path4027"
         style="fill-rule:evenodd;stroke:#000000;stroke-width:1pt" />
    </marker>
    <marker
       refX="0"
       refY="0"
       orient="auto"
       id="Arrow1LendW"
       style="overflow:visible">
      <path
         d="M 0,0 5,-5 -12.5,0 5,5 0,0 z"
         transform="matrix(-0.8,0,0,-0.8,-10,0)"
         id="path4653"
         style="fill:#0000ff;fill-rule:evenodd;stroke:#0000ff;stroke-width:1pt" />
    </marker>
    <marker
       refX="0"
       refY="0"
       orient="auto"
       id="Arrow1LendL"
       style="overflow:visible">
      <path
         d="M 0,0 5,-5 -12.5,0 5,5 0,0 z"
         transform="matrix(-0.8,0,0,-0.8,-10,0)"
         id="path4656"
         style="fill:#0000ff;fill-rule:evenodd;stroke:#0000ff;stroke-width:1pt" />
    </marker>
    <marker
       refX="0"
       refY="0"
       orient="auto"
       id="Arrow1Lendu"
       style="overflow:visible">
      <path
         d="M 0,0 5,-5 -12.5,0 5,5 0,0 z"
         transform="matrix(-0.8,0,0,-0.8,-10,0)"
         id="path4659"
         style="fill:#0000ff;fill-rule:evenodd;stroke:#0000ff;stroke-width:1pt" />
    </marker>
    <marker
       refX="0"
       refY="0"
       orient="auto"
       id="Arrow1LendH"
       style="overflow:visible">
      <path
         d="M 0,0 5,-5 -12.5,0 5,5 0,0 z"
         transform="matrix(-0.8,0,0,-0.8,-10,0)"
         id="path4662"
         style="fill:#0000ff;fill-rule:evenodd;stroke:#0000ff;stroke-width:1pt" />
    </marker>
    <marker
       refX="0"
       refY="0"
       orient="auto"
       id="Arrow1Lendp"
       style="overflow:visible">
      <path
         d="M 0,0 5,-5 -12.5,0 5,5 0,0 z"
         transform="matrix(-0.8,0,0,-0.8,-10,0)"
         id="path4665"
         style="fill:#0000ff;fill-rule:evenodd;stroke:#0000ff;stroke-width:1pt" />
    </marker>
    <marker
       refX="0"
       refY="0"
       orient="auto"
       id="Arrow1Lend-5"
       style="overflow:visible">
      <path
         d="M 0,0 5,-5 -12.5,0 5,5 0,0 z"
         transform="matrix(-0.8,0,0,-0.8,-10,0)"
         id="path4027-7"
         style="fill-rule:evenodd;stroke:#000000;stroke-width:1pt" />
    </marker>
    <marker
       refX="0"
       refY="0"
       orient="auto"
       id="Arrow1Lendz"
       style="overflow:visible">
      <path
         d="M 0,0 5,-5 -12.5,0 5,5 0,0 z"
         transform="matrix(-0.8,0,0,-0.8,-10,0)"
         id="path5453"
         style="fill:#0000ff;fill-rule:evenodd;stroke:#0000ff;stroke-width:1pt" />
    </marker>
    <marker
       refX="0"
       refY="0"
       orient="auto"
       id="Arrow1LendQ"
       style="overflow:visible">
      <path
         d="M 0,0 5,-5 -12.5,0 5,5 0,0 z"
         transform="matrix(-0.8,0,0,-0.8,-10,0)"
         id="path5456"
         style="fill:#0000ff;fill-rule:evenodd;stroke:#0000ff;stroke-width:1pt" />
    </marker>
  </defs>
  <metadata
     id="metadata7">
    <rdf:RDF>
      <cc:Work
         rdf:about="">
        <dc:format>image/svg+xml</dc:format>
        <dc:type
           rdf:resource="http://purl.org/dc/dcmitype/StillImage" />
        <dc:title></dc:title>
      </cc:Work>
    </rdf:RDF>
  </metadata>
  <g
     transform="translate(-72.602474,-191.88835)"
     id="layer1">
    <g
       id="g3804">
      <g
         id="g3816">
        <text
           x="2426.3862"
           y="308.88992"
           id="text4796"
           xml:space="preserve"
           style="font-size:40px;font-style:normal;font-weight:normal;line-height:125%;letter-spacing:0px;word-spacing:0px;fill:#000000;fill-opacity:1;stroke:none;font-family:Sans"><tspan
             x="2426.3862"
             y="308.88992"
             id="tspan4798" /></text>
        <text
           x="1238.447"
           y="-416.39963"
           id="text4800"
           xml:space="preserve"
           style="font-size:40px;font-style:normal;font-weight:normal;line-height:125%;letter-spacing:0px;word-spacing:0px;fill:#000000;fill-opacity:1;stroke:none;font-family:Sans"><tspan
             x="1238.447"
             y="-416.39963"
             id="tspan4802" /></text>
        <g
           transform="translate(-994.28571,157.14286)"
           id="g5957">
          <path
             d="m 1306.6651,604.40923 c -43.4366,128.28938 -29.4207,192.93914 30.1783,184.85792 59.599,-8.08122 140.4112,-56.56855 141.4213,-107.07617 1.0102,-50.50763 1.0102,-132.32999 -36.3655,-170.71578 -37.3756,-38.3858 -119.198,24.24366 -126.269,57.57869 -7.0711,33.33504 -8.9651,35.35534 -8.9651,35.35534 z"
             id="path3007"
             style="fill:none;stroke:#000000;stroke-width:5;stroke-linecap:butt;stroke-linejoin:miter;stroke-miterlimit:4;stroke-opacity:1;stroke-dasharray:none" />
          <g
             transform="translate(985.71429,242.85714)"
             id="g3025"
             style="stroke-width:5;stroke-miterlimit:4;stroke-dasharray:none">
            <path
               d="m 293.55784,-80.544447 c -160,204.285707 19.2993,335.763777 159.2993,247.192347 140,-88.571432 178.57143,-284.28572 47.14286,-312.85715 -131.42857,-28.57143 -206.44216,65.664803 -206.44216,65.664803 z"
               id="path3019"
               style="fill:none;stroke:#000000;stroke-width:5;stroke-linecap:butt;stroke-linejoin:miter;stroke-miterlimit:4;stroke-opacity:1;stroke-dasharray:none" />
            <path
               d="m 318.79548,69.001205 c 8.08122,64.649755 23.83486,22.829956 69.29172,-5.454314 45.45687,-28.28428 64.64976,-109.09648 -3.03046,-102.02541 -67.68022,7.07107 -66.26126,107.479724 -66.26126,107.479724 z"
               id="path3021"
               style="fill:none;stroke:#000000;stroke-width:3;stroke-linecap:butt;stroke-linejoin:miter;stroke-miterlimit:4;stroke-opacity:1;stroke-dasharray:none" />
            <path
               d="m 370.32617,30.024578 c 0,85.862962 42.03953,47.03066 88.50654,41.97989 46.46702,-5.05076 73.74114,-34.34518 42.42641,-83.84266 -31.31473,-49.49747 -97.9848,-55.55839 -115.15739,-26.26396 -17.17259,29.2944205 -15.77556,68.12673 -15.77556,68.12673 z"
               id="path3023"
               style="fill:none;stroke:#000000;stroke-width:3;stroke-linecap:butt;stroke-linejoin:miter;stroke-miterlimit:4;stroke-opacity:1;stroke-dasharray:none" />
          </g>
          <path
             d="m 1365.6005,619.39584 c -31.4285,50 -66.25,87.67857 5.1786,60.53571 71.4286,-27.14286 75.7143,-37.14286 48.5714,-65.71429 -27.1428,-28.57143 -53.75,5.17858 -53.75,5.17858 z"
             id="path3032"
             style="fill:none;stroke:#000000;stroke-width:3;stroke-linecap:butt;stroke-linejoin:miter;stroke-miterlimit:4;stroke-opacity:1;stroke-dasharray:none" />
          <g
             transform="translate(52.527932,-76.771593)"
             id="g3824">
            <path
               d="m 1357.9388,260.89367 c 1.0282,-15.06416 4.2348,-30.21125 8.9359,-42.21018 1.4945,-3.81457 4.04,-9.22021 5.5572,-11.80141 l 0.668,-1.13642 1.1334,-0.0813 c 2.2107,-0.15864 7.6744,-0.11257 9.7309,0.082 9.109,0.86201 16.0851,3.75311 21.0598,8.72776 4.1605,4.16048 6.7809,9.62432 7.8348,16.33594 0.732,4.66204 0.5647,11.06542 -0.4306,16.47811 -0.4269,2.32149 -1.3113,6.17892 -1.4563,6.35196 -0.034,0.0404 -7.6347,-2.92774 -7.9962,-3.12256 -0.1148,-0.0618 -0.374,-0.50123 -0.5761,-0.97643 -1.5972,-3.75572 -5.3322,-6.32627 -9.5447,-6.56898 -3.5902,-0.20686 -7.2073,1.48601 -9.3319,4.36747 -1.0195,1.38267 -1.7199,2.99932 -2.0845,4.81153 -0.057,0.28385 -0.4073,0.45565 -3.3204,1.62921 -3.6157,1.45659 -15.8517,6.53523 -18.4017,7.63776 -0.899,0.38866 -1.6856,0.70666 -1.748,0.70666 -0.065,0 -0.078,-0.52411 -0.03,-1.23113 z"
               transform="translate(-52.527932,76.771593)"
               id="path4891"
               style="fill:#b3b3b3;fill-opacity:0.23076926;fill-rule:nonzero;stroke:none" />
            <path
               d="m 1361.8771,309.00185 c -1.8717,-5.68251 -3.109,-12.6414 -3.7436,-21.05503 -0.3357,-4.45035 -0.4019,-6.45534 -0.4649,-14.079 l -0.067,-8.14435 2.1904,-0.92737 c 5.0751,-2.14873 13.9585,-5.8462 17.6571,-7.34926 l 3.9763,-1.61591 0.2649,1.00074 c 0.804,3.03865 2.9541,5.63991 5.7984,7.01514 1.6755,0.81013 2.835,1.07652 4.7351,1.08788 3.0539,0.0183 5.5643,-0.95693 7.6815,-2.98397 2.0631,-1.97519 3.1517,-4.34431 3.462,-7.53405 l 0.031,-0.32138 3.2467,1.27422 c 1.7857,0.70082 3.2807,1.30819 3.3222,1.3497 0.042,0.0415 -0.1887,0.83439 -0.5116,1.76195 -6.5284,18.75223 -20.0791,36.15301 -36.0462,46.28776 -3.4168,2.16872 -10.4816,6.34828 -10.7306,6.34828 -0.058,0 -0.4186,-0.95191 -0.8018,-2.11535 l 0,0 z"
               transform="translate(-52.527932,76.771593)"
               id="path4893"
               style="fill:#b3b3b3;fill-opacity:0.23076926;fill-rule:nonzero;stroke:none" />
            <path
               d="m 1335.0413,687.32867 c -1.057,-0.16511 -2.458,-0.62992 -3.0576,-1.01441 -0.3692,-0.23674 -0.7958,-0.76605 -1.0791,-1.3389 -0.4312,-0.87208 -0.4602,-1.07081 -0.3643,-2.5 0.3589,-5.35235 4.9629,-14.25458 16.0643,-31.06155 l 2.8603,-4.33035 0.6453,0.002 c 0.355,10e-4 3.7755,0.27962 7.6011,0.61866 3.8257,0.33905 6.9931,0.57913 7.0387,0.53351 0.1034,-0.1034 0.788,0.42945 -5.3665,-4.17737 l -5.3006,-3.96771 2.0712,-3.15644 c 4.6936,-7.1528 5.8127,-8.87213 8.241,-12.66095 2.8534,-4.45193 4.5321,-6.46869 7.6412,-9.17988 5.1322,-4.47536 9.7021,-7.3079 14.6214,-9.06271 3.4016,-1.21343 5.3621,-1.53861 9.2765,-1.53861 4.6952,0 6.9561,0.51744 11.25,2.57468 3.9407,1.88804 6.9527,4.18865 11.1483,8.51529 6.8679,7.08225 11.4957,13.22339 13.3981,17.7794 0.6576,1.5748 1.3839,4.01568 1.2358,4.15289 -0.1876,0.17383 -6.6248,4.32478 -8.7287,5.6286 -1.3259,0.8217 -2.51,1.58366 -2.6313,1.69323 -0.172,0.15532 -0.067,0.44894 0.4762,1.33233 0.3832,0.62321 0.7777,1.21403 0.8766,1.31295 0.1808,0.18075 2.4031,-1.14375 7.6625,-4.56685 1.3013,-0.84698 2.366,-1.49007 2.366,-1.42907 0,0.52974 -0.8582,2.73784 -1.5028,3.86629 -2.7004,4.72797 -8.2331,9.13853 -18.2781,14.57104 -7.7831,4.20922 -20.5276,9.77968 -37.0048,16.17422 -16.6169,6.4488 -25.7265,9.3543 -33.6481,10.73207 -2.369,0.41203 -6.3653,0.67664 -7.5126,0.49743 z m 52.6857,-34.26461 c 3.9147,-0.9909 7.2118,-4.37239 8.0303,-8.2358 0.7336,-3.46267 -0.095,-6.9058 -2.2895,-9.51063 -0.9624,-1.1424 -2.3862,-2.30074 -3.571,-2.90522 -1.7992,-0.91785 -5.1004,-1.30149 -7.3021,-0.84858 -0.5204,0.10706 -1.6231,0.51787 -2.4503,0.9129 -2.7906,1.33259 -5.0209,4.05933 -5.8255,7.12219 -0.3903,1.4858 -0.3939,4.0177 -0.01,5.51767 0.9872,3.8363 4.1754,7.03089 7.9235,7.93956 1.3867,0.33618 4.1797,0.3402 5.4925,0.008 l 0,0 z"
               transform="translate(-52.527932,76.771593)"
               id="path5013"
               style="fill:#b1b1b1;fill-opacity:0.23137255;fill-rule:nonzero;stroke:none" />
          </g>
          <path
             d="m 1385.9293,252.32137 c -517.19811,206.07112 -26.264,393.95949 -26.264,393.95949"
             id="path3836"
             style="fill:none;stroke:#0000ff;stroke-width:3;stroke-linecap:butt;stroke-linejoin:miter;stroke-miterlimit:4;stroke-opacity:1;stroke-dasharray:none;marker-end:url(#Arrow1LendW)" />
          <path
             d="m 1401.7857,253.96933 a 9.4642859,9.4642859 0 1 1 -18.9286,0 9.4642859,9.4642859 0 1 1 18.9286,0 z"
             id="path4729"
             style="fill:#ff0000;fill-opacity:1;fill-rule:nonzero;stroke:#ff0000;stroke-width:3;stroke-miterlimit:4;stroke-opacity:1;stroke-dasharray:none;stroke-dashoffset:0" />
          <path
             d="m 1401.7857,253.96933 a 9.4642859,9.4642859 0 1 1 -18.9286,0 9.4642859,9.4642859 0 1 1 18.9286,0 z"
             transform="translate(-7.3214089,388.39285)"
             id="path4729-3"
             style="fill:#ff0000;fill-opacity:1;fill-rule:nonzero;stroke:#ff0000;stroke-width:3;stroke-miterlimit:4;stroke-opacity:1;stroke-dasharray:none;stroke-dashoffset:0" />
          <text
             x="1428.3557"
             y="244.24016"
             id="text4843"
             xml:space="preserve"
             style="font-size:40px;font-style:normal;font-weight:normal;line-height:125%;letter-spacing:0px;word-spacing:0px;fill:#000000;fill-opacity:1;stroke:none;font-family:Sans"><tspan
               x="1428.3557"
               y="244.24016"
               id="tspan4845">U<tspan
   id="tspan4920"
   style="font-size:65.00091553%;baseline-shift:sub">α</tspan></tspan></text>
          <text
             x="1308.9052"
             y="312.42542"
             id="text4847"
             xml:space="preserve"
             style="font-size:40px;font-style:normal;font-weight:normal;line-height:125%;letter-spacing:0px;word-spacing:0px;fill:#000000;fill-opacity:1;stroke:none;font-family:Sans"><tspan
               x="1308.9052"
               y="312.42542"
               id="tspan4849">U<tspan
   id="tspan4922"
   style="font-size:65.00091553%;baseline-shift:sub">β</tspan></tspan></text>
          <text
             x="1599.2562"
             y="302.85788"
             id="text4851"
             xml:space="preserve"
             style="font-size:40px;font-style:normal;font-weight:normal;line-height:125%;letter-spacing:0px;word-spacing:0px;fill:#000000;fill-opacity:1;stroke:none;font-family:Sans"><tspan
               x="1599.2562"
               y="302.85788"
               id="tspan4853">ϕ<tspan
   id="tspan4924"
   style="font-size:65.00091553%;baseline-shift:sub">α</tspan></tspan></text>
          <text
             x="1064.7007"
             y="466.47369"
             id="text4855"
             xml:space="preserve"
             style="font-size:40px;font-style:normal;font-weight:normal;line-height:125%;letter-spacing:0px;word-spacing:0px;fill:#000000;fill-opacity:1;stroke:none;font-family:Sans"><tspan
               x="1064.7007"
               y="466.47369"
               id="tspan4857">ϕ<tspan
   id="tspan4926"
   style="font-size:65.00091553%;baseline-shift:sub">β</tspan></tspan></text>
          <text
             x="1361.0454"
             y="837.50427"
             id="text4788-4-7"
             xml:space="preserve"
             style="font-size:40px;font-style:normal;font-weight:normal;line-height:125%;letter-spacing:0px;word-spacing:0px;fill:#000000;fill-opacity:1;stroke:none;font-family:Sans"><tspan
               x="1361.0454"
               y="837.50427"
               id="tspan4790-0-0">ℝ<tspan
   id="tspan4883"
   style="font-size:65.00091553%;baseline-shift:super">d</tspan></tspan></text>
          <text
             x="1311.178"
             y="64.432991"
             id="text4979"
             xml:space="preserve"
             style="font-size:40px;font-style:normal;font-weight:normal;line-height:125%;letter-spacing:0px;word-spacing:0px;fill:#000000;fill-opacity:1;stroke:none;font-family:Sans"><tspan
               x="1311.178"
               y="64.432991"
               id="tspan4981">Open set S</tspan></text>
          <text
             x="1500.1526"
             y="644.15723"
             id="text4983"
             xml:space="preserve"
             style="font-size:40px;font-style:normal;font-weight:normal;line-height:125%;letter-spacing:0px;word-spacing:0px;fill:#000000;fill-opacity:1;stroke:none;font-family:Sans"><tspan
               x="1500.1526"
               y="644.15723"
               id="tspan4985">ϕ<tspan
   id="tspan4991"
   style="font-size:65.00091553%;baseline-shift:sub">α</tspan><tspan
   id="tspan4989"
   style="font-size:65.00091553%;baseline-shift:super">-1</tspan>(ϕ<tspan
   id="tspan4987"
   style="font-size:65.00091553%;baseline-shift:sub">β</tspan>)</tspan></text>
          <path
             d="m 1391.9902,248.28076 c 452.5483,143.44166 30.3046,398.0001 30.3046,398.0001"
             id="path4993"
             style="fill:#000000;fill-opacity:0;stroke:#0000ff;stroke-width:3;stroke-linecap:butt;stroke-linejoin:miter;stroke-miterlimit:4;stroke-opacity:0.74901961;stroke-dasharray:none" />
          <path
             d="m 1625.7143,315.21933 c 48.5714,58.57142 18.5714,171.42857 18.5714,171.42857"
             id="path5015"
             style="fill:none;stroke:#0000ff;stroke-width:3;stroke-linecap:butt;stroke-linejoin:miter;stroke-miterlimit:4;stroke-opacity:1;stroke-dasharray:none;marker-end:url(#Arrow1LendQ)" />
          <path
             d="m 1578.5222,605.21933 c 31.4286,-24.28572 58.5715,-95.71429 58.5715,-95.71429"
             id="path5015-3"
             style="fill:none;stroke:#0000ff;stroke-width:3;stroke-linecap:butt;stroke-linejoin:miter;stroke-miterlimit:4;stroke-opacity:1;stroke-dasharray:none;marker-end:url(#Arrow1Lendz)" />
        </g>
      </g>
    </g>
  </g>
</svg>
